inDegrees=yes
name=ik_MT_012005D6_009-001__orientations
DataType=double
version=3
OpenSimVersion=4.5
endheader
time	gndpitch	gndroll	gndyaw	spine_tx	spine_ty	spine_tz	pitch2	roll2	yaw2	aux7jnt_r3	aux7jnt_r1	aux7jnt_r2	aux6jnt_r3	aux6jnt_r1	aux6jnt_r2	aux5jnt_r3	aux5jnt_r1	aux5jnt_r2	aux4jnt_r3	aux4jnt_r1	aux4jnt_r2	aux3jnt_r3	aux3jnt_r1	aux3jnt_r2	pitch1	roll1	yaw1	aux1jnt_r3	aux1jnt_r1	aux1jnt_r2
12.50999999999978	4.21296440140691e-09	8.002416233845703e-10	4.440363815649541e-10	-3.97872216927308e-17	8.44526185968539e-17	-7.30666612219483e-19	-0.575476723522261	0.5739450317955892	-0.471226852532418	-6.165841934728262	4.505190078517172	-5.075869631769805	-7.253913907418355	5.162890175003301	-5.912844678937947	-7.253913907418355	7.103074371169199	-5.912844678937947	-5.440435430563767	7.103074371169199	-5.912844678937947	-3.626956953709178	6.445393116178939	-2.537934815884903	0.4188361090182783	0.1044634247464535	-0.6632109281303429	13.34262639326749	2.992656675727132	-4.217917824690152
12.51999999999978	4.21296440140691e-09	8.002416233845703e-10	4.440363815649541e-10	-3.97872216927308e-17	8.44526185968539e-17	-7.30666612219483e-19	-0.5754747981427935	0.5740901644859183	-0.4712268542692182	-6.165821305595967	4.506329299732301	-5.075869650477934	-7.253889637910437	5.164195707936709	-5.912844700730913	-7.253889637910437	7.104870515810213	-5.912844700730913	-5.440417228432827	7.104870515810213	-5.912844700730913	-3.626944818955218	6.447022953866105	-2.537934825238967	0.4188361009749307	0.1044659310893406	-0.6632109299688117	13.3426261370351	2.992728477161855	-4.217917836382524
12.52999999999978	4.21296440140691e-09	8.002416233845703e-10	4.440363815649541e-10	-3.97872216927308e-17	8.44526185968539e-17	-7.30666612219483e-19	-0.5754803155606821	0.5742579821457426	-0.4712268524266549	-6.165880420978396	4.507646586953476	-5.075869630630568	-7.253959185248704	5.165705302234247	-5.912844677610855	-7.253959185248704	7.106947406892973	-5.912844677610855	-5.440469388936529	7.106947406892973	-5.912844677610855	-3.626979592624352	6.448907543381623	-2.537934815315284	0.418836023271174	0.1044685885721626	-0.6632109284517222	13.34262366167021	2.992804608436772	-4.217917826734073
12.53999999999978	4.21296440140691e-09	8.002416233845703e-10	4.440363815649541e-10	-3.97872216927308e-17	8.44526185968539e-17	-7.30666612219483e-19	-0.5754738412588858	0.5743376306372907	-0.4712268542475162	-6.165811053235302	4.508271788974598	-5.075869650244167	-7.253877576339217	5.166421775749455	-5.9128447004586	-7.253877576339217	7.107933127001472	-5.9128447004586	-5.440408182254416	7.107933127001472	-5.9128447004586	-3.626938788169609	6.449801994610742	-2.537934825122083	0.4188360485140744	0.1044709967065765	-0.6632109293333527	13.3426244658191	2.992873596405979	-4.217917832341104
12.54999999999978	4.21296440140691e-09	8.002416233845703e-10	4.440363815649541e-10	-3.97872216927308e-17	8.44526185968539e-17	-7.30666612219483e-19	-0.5754746035130334	0.5743263233661975	-0.4712268593475941	-6.165819220270381	4.508183032381679	-5.075869705180192	-7.253887184592235	5.166320061829828	-5.912844764453189	-7.253887184592235	7.107793189580532	-5.912844764453189	-5.440415388444173	7.107793189580532	-5.912844764453189	-3.626943592296117	6.449675014145315	-2.537934852590096	0.4188360695694658	0.1044705818280393	-0.6632109363217946	13.34262513656886	2.992861711011382	-4.217917876786503
12.55999999999978	4.21296440140691e-09	8.002416233845703e-10	4.440363815649541e-10	-3.97872216927308e-17	8.44526185968539e-17	-7.30666612219483e-19	-0.5754725829850347	0.5744020556199566	-0.4712268574008769	-6.165797571686251	4.508777493835929	-5.075869684210923	-7.253861715732155	5.167001307048801	-5.912844740026234	-7.253861715732155	7.108730442803309	-5.912844740026234	-5.440396286799115	7.108730442803309	-5.912844740026234	-3.626930857866077	6.450525486089508	-2.537934842105461	0.4188360436818161	0.104472148101185	-0.6632109333247503	13.34262431188055	2.992906581431788	-4.217917857725769
12.56999999999978	4.21296440140691e-09	8.002416233845703e-10	4.440363815649541e-10	-3.97872216927308e-17	8.44526185968539e-17	-7.30666612219483e-19	-0.5754610499677418	0.5745472969126444	-0.4712268514506935	-6.165674003245075	4.509917567526889	-5.075869620117897	-7.253716341451812	5.1683078169086	-5.912844665364721	-7.253716341451812	7.110527931493995	-5.912844665364721	-5.440287256088858	7.110527931493995	-5.912844665364721	-3.626858170725906	6.452156543379346	-2.537934810058949	0.4188360321414302	0.1044768888045267	-0.6632109229335565	13.34262394424498	2.993042392578492	-4.217917791639402
12.57999999999978	4.21296440140691e-09	8.002416233845703e-10	4.440363815649541e-10	-3.97872216927308e-17	8.44526185968539e-17	-7.30666612219483e-19	-0.5754521141043581	0.5746083002661397	-0.4712268497699727	-6.165578261542723	4.510396414259065	-5.075869602013837	-7.253603704431018	5.168856569135653	-5.912844644275427	-7.253603704431018	7.111282901626607	-5.912844644275427	-5.440202778323263	7.111282901626607	-5.912844644275427	-3.626801852215509	6.452841610019703	-2.537934801006918	0.4188360474795439	0.1044795325179781	-0.6632109188625992	13.34262443286264	2.993118129389995	-4.217917765748749
12.58999999999978	4.21296440140691e-09	8.002416233845703e-10	4.440363815649541e-10	-3.97872216927308e-17	8.44526185968539e-17	-7.30666612219483e-19	-0.5754574956298726	0.5745443257338836	-0.4712268526604069	-6.16563592093073	4.509894245214936	-5.075869633148453	-7.253671538838873	5.168281089837569	-5.912844680543922	-7.253671538838873	7.11049116054462	-5.912844680543922	-5.440253654129153	7.11049116054462	-5.912844680543922	-3.626835769419436	6.452123177091512	-2.537934816574226	0.4188360595638066	0.1044773996540656	-0.663210923742344	13.34262481782421	2.993057027339764	-4.217917796783163
12.59999999999978	4.21296440140691e-09	8.002416233845703e-10	4.440363815649541e-10	-3.97872216927308e-17	8.44526185968539e-17	-7.30666612219483e-19	-0.5754620560439686	0.5744183542925019	-0.4712268573494512	-6.165684782668004	4.508905430508912	-5.075869683656986	-7.253729023094762	5.167147920838778	-5.912844739380957	-7.253729023094762	7.108932153205573	-5.912844739380957	-5.440296767321072	7.108932153205573	-5.912844739380957	-3.626864511547381	6.450708519909833	-2.537934841828493	0.4188361096107675	0.1044742118027686	-0.6632109306887025	13.34262641214209	2.992965702127245	-4.217917840960919
12.60999999999978	4.21296440140691e-09	8.002416233845703e-10	4.440363815649541e-10	-3.97872216927308e-17	8.44526185968539e-17	-7.30666612219483e-19	-0.5754601870509272	0.5742796668582177	-0.4712268614909959	-6.165664757677941	4.507816801427141	-5.075869728268072	-7.253705464340666	5.165900365842752	-5.912844791348094	-7.253705464340666	7.107215774274682	-5.912844791348094	-5.440279098255501	7.107215774274682	-5.912844791348094	-3.626852732170333	6.449151062340355	-2.537934864134036	0.4188361879777222	0.1044720033688374	-0.6632109355463307	13.3426289086341	2.992902435155448	-4.217917871854673
12.61999999999978	4.21296440140691e-09	8.002416233845703e-10	4.440363815649541e-10	-3.97872216927308e-17	8.44526185968539e-17	-7.30666612219483e-19	-0.5754641854171615	0.5741588918652315	-0.4712268633584474	-6.165707597454409	4.506868776320216	-5.07586974838352	-7.253755863954153	5.164813941202529	-5.912844814780438	-7.253755863954153	7.105721077553152	-5.912844814780438	-5.440316897965614	7.105721077553152	-5.912844814780438	-3.626877931977076	6.447794761187321	-2.53793487419176	0.418836205522125	0.1044695229695907	-0.6632109388611873	13.34262946753627	2.992831376951279	-4.217917892936644
12.62999999999978	4.21296440140691e-09	8.002416233845703e-10	4.440363815649541e-10	-3.97872216927308e-17	8.44526185968539e-17	-7.30666612219483e-19	-0.5754741346948741	0.5738962411708153	-0.4712268615677227	-6.165814197202466	4.504807095781058	-5.075869729094543	-7.253881275115051	5.16245128168892	-5.912844792310843	-7.253881275115051	7.102470544291738	-5.912844792310843	-5.440410956336289	7.102470544291738	-5.912844792310843	-3.626940637557525	6.444845198278042	-2.537934864547271	0.4188361830567346	0.1044631743087789	-0.6632109395730597	13.34262875186896	2.992649501216237	-4.217917897464042
